<svg width="20" height="20" viewBox="0 0 20 20" fill="none" xmlns="http://www.w3.org/2000/svg">
<path d="M7.29167 14.0971L14.0972 9.72211L7.29167 5.34711V14.0971ZM9.72222 19.4443C8.37731 19.4443 7.11343 19.1891 5.93056 18.6787C4.74769 18.1683 3.71875 17.4756 2.84375 16.6006C1.96875 15.7256 1.27604 14.6967 0.765625 13.5138C0.255208 12.3309 0 11.067 0 9.72211C0 8.37721 0.255208 7.11332 0.765625 5.93045C1.27604 4.74758 1.96875 3.71864 2.84375 2.84364C3.71875 1.96864 4.74769 1.27593 5.93056 0.765516C7.11343 0.2551 8.37731 -0.000108719 9.72222 -0.000108719C11.0671 -0.000108719 12.331 0.2551 13.5139 0.765516C14.6968 1.27593 15.7257 1.96864 16.6007 2.84364C17.4757 3.71864 18.1684 4.74758 18.6788 5.93045C19.1892 7.11332 19.4444 8.37721 19.4444 9.72211C19.4444 11.067 19.1892 12.3309 18.6788 13.5138C18.1684 14.6967 17.4757 15.7256 16.6007 16.6006C15.7257 17.4756 14.6968 18.1683 13.5139 18.6787C12.331 19.1891 11.0671 19.4443 9.72222 19.4443ZM9.72222 17.4999C11.8935 17.4999 13.7326 16.7464 15.2396 15.2395C16.7465 13.7325 17.5 11.8934 17.5 9.72211C17.5 7.55082 16.7465 5.7117 15.2396 4.20475C13.7326 2.69781 11.8935 1.94434 9.72222 1.94434C7.55093 1.94434 5.71181 2.69781 4.20486 4.20475C2.69792 5.7117 1.94444 7.55082 1.94444 9.72211C1.94444 11.8934 2.69792 13.7325 4.20486 15.2395C5.71181 16.7464 7.55093 17.4999 9.72222 17.4999Z" fill="white"/>
</svg>
