<svg width="17" height="14" viewBox="0 0 17 14" fill="none" xmlns="http://www.w3.org/2000/svg">
<path d="M5.24167 13.5445C11.5308 13.5445 14.9708 8.33366 14.9708 3.81533C14.9708 3.667 14.9708 3.5195 14.9608 3.37366C15.6301 2.8891 16.2078 2.28918 16.6667 1.602C16.0426 1.87867 15.3805 2.06013 14.7025 2.14033C15.4164 1.71288 15.9506 1.04062 16.2058 0.248665C15.5348 0.646904 14.8006 0.927606 14.035 1.07866C13.5195 0.530136 12.8375 0.16686 12.0947 0.0450859C11.3519 -0.0766887 10.5896 0.0498312 9.92593 0.405056C9.26227 0.76028 8.73423 1.32439 8.42358 2.01005C8.11292 2.6957 8.03697 3.46465 8.2075 4.19783C6.84799 4.1297 5.518 3.77644 4.30387 3.16097C3.08974 2.54551 2.01861 1.6816 1.16 0.625332C0.722765 1.378 0.588824 2.26902 0.785446 3.11697C0.982069 3.96492 1.49447 4.70606 2.21833 5.1895C1.67438 5.17375 1.14219 5.02741 0.666667 4.76283V4.80617C0.666991 5.59558 0.940329 6.36059 1.44033 6.97146C1.94033 7.58234 2.63622 8.00149 3.41 8.15783C2.90651 8.29509 2.37824 8.31505 1.86583 8.21617C2.0843 8.89573 2.50973 9.49 3.08261 9.91584C3.65548 10.3417 4.34714 10.5778 5.06083 10.5912C4.35177 11.1483 3.53982 11.5602 2.67144 11.8033C1.80306 12.0464 0.895269 12.1159 0 12.0078C1.56384 13.0114 3.38349 13.5437 5.24167 13.5412" fill="#94A3B8"/>
</svg>
