<svg width="13" height="11" viewBox="0 0 13 11" fill="none" xmlns="http://www.w3.org/2000/svg">
<path d="M0 10.5481L6.10675 6.96182e-05L12.2135 10.5481H0ZM1.9153 9.43778H10.2982L6.10675 2.22071L1.9153 9.43778ZM6.10675 8.88262C6.10675 8.88262 6.14608 8.88262 6.22472 8.88262C6.30337 8.88262 6.3959 8.82942 6.5023 8.72301C6.60871 8.6166 6.66191 8.48475 6.66191 8.32746C6.66191 8.17016 6.60871 8.03831 6.5023 7.93191C6.3959 7.8255 6.26405 7.7723 6.10675 7.7723C5.94946 7.7723 5.81761 7.8255 5.7112 7.93191C5.6048 8.03831 5.55159 8.17016 5.55159 8.32746C5.55159 8.48475 5.6048 8.6166 5.7112 8.72301C5.81761 8.82942 5.94946 8.88262 6.10675 8.88262ZM5.55159 7.21714H6.66191V4.44134H5.55159V7.21714Z" fill="#C8A84B"/>
</svg>
